<svg xmlns="http://www.w3.org/2000/svg"  viewBox="0 0 64 64" width="64px" height="64px" clip-rule="evenodd" baseProfile="basic"><path fill="#7e8188" fill-rule="evenodd" d="M32.001,59.999	c-4.321,0-9.82-6.54-13.618-12.941c-3.424-5.768-5.379-11.033-5.379-18.059c0-10.465,4.213-25,18.997-25c14.784,0,19,14.535,19,25	c0,7.025-1.955,12.291-5.379,18.059C41.823,53.459,36.322,59.999,32.001,59.999z" clip-rule="evenodd"/><path fill="#8b8e98" fill-rule="evenodd" d="M15.206,23.927	c-1.615-0.364-2.631-1.971-2.268-3.587c0.953-4.228,2.744-8.533,5.832-11.824c3.164-3.373,7.548-5.517,13.23-5.517	c5.663,0,10.042,2.135,13.21,5.501c3.092,3.285,4.893,7.592,5.851,11.84c0.365,1.615-0.651,3.221-2.267,3.585	c-1.615,0.365-3.221-0.651-3.585-2.267c-0.812-3.601-2.249-6.795-4.369-9.047c-2.043-2.171-4.845-3.613-8.84-3.613	c-4.011,0-6.816,1.449-8.855,3.623c-2.117,2.256-3.547,5.451-4.353,9.037C18.429,23.274,16.822,24.29,15.206,23.927z" clip-rule="evenodd"/><path fill="#8d6c9f" fill-rule="evenodd" d="M11.176,15.621	l-1.875-0.693c-0.517-0.192-0.783-0.767-0.591-1.285c0.192-0.517,0.767-0.783,1.285-0.591l1.875,0.693	c0.517,0.192,0.783,0.767,0.591,1.285C12.269,15.547,11.694,15.813,11.176,15.621z" clip-rule="evenodd"/><path fill="#8d6c9f" fill-rule="evenodd" d="M9.878,20.307	l-1.952-0.435c-0.539-0.12-0.879-0.655-0.759-1.195c0.12-0.539,0.655-0.879,1.195-0.759l1.952,0.435	c0.539,0.12,0.879,0.655,0.759,1.195C10.953,20.087,10.418,20.427,9.878,20.307z" clip-rule="evenodd"/><path fill="#8d6c9f" fill-rule="evenodd" d="M9.166,25.141	l-1.989-0.216c-0.549-0.06-0.947-0.553-0.887-1.101c0.06-0.549,0.553-0.947,1.101-0.887l1.989,0.216	c0.549,0.06,0.947,0.553,0.887,1.101C10.208,24.803,9.714,25.201,9.166,25.141z" clip-rule="evenodd"/><path fill="#8d6c9f" fill-rule="evenodd" d="M6.004,28.999	c0-0.551,0.448-1,1-1h2c0.551,0,1,0.449,1,1c0,0.552-0.449,1-1,1h-2C6.452,29.999,6.004,29.551,6.004,28.999z" clip-rule="evenodd"/><path fill="#8d6c9f" fill-rule="evenodd" d="M6.332,34.258	c-0.067-0.548,0.324-1.048,0.871-1.115l1.984-0.243c0.548-0.067,1.048,0.324,1.115,0.871c0.067,0.548-0.324,1.048-0.871,1.115	l-1.984,0.243C6.898,35.195,6.398,34.805,6.332,34.258z" clip-rule="evenodd"/><path fill="#8d6c9f" fill-rule="evenodd" d="M7.388,39.454	c-0.151-0.531,0.159-1.084,0.691-1.233l1.925-0.544c0.531-0.151,1.084,0.159,1.233,0.691c0.151,0.531-0.159,1.084-0.691,1.233	l-1.925,0.544C8.09,40.295,7.537,39.986,7.388,39.454z" clip-rule="evenodd"/><path fill="#8d6c9f" fill-rule="evenodd" d="M9.136,44.382	c-0.211-0.511,0.033-1.096,0.543-1.307l1.848-0.763c0.511-0.211,1.096,0.033,1.307,0.543c0.211,0.511-0.033,1.096-0.543,1.307	l-1.848,0.763C9.932,45.135,9.346,44.891,9.136,44.382z" clip-rule="evenodd"/><path fill="#8d6c9f" fill-rule="evenodd" d="M11.457,49.059	c-0.267-0.483-0.091-1.092,0.393-1.357l1.752-0.965c0.483-0.267,1.092-0.091,1.357,0.393c0.267,0.483,0.091,1.092-0.393,1.357	l-1.752,0.965C12.332,49.719,11.722,49.543,11.457,49.059z" clip-rule="evenodd"/><path fill="#8d6c9f" fill-rule="evenodd" d="M17.522,47.569	c-3.488-5.876-5.519-11.316-5.519-18.569c0-10.676,4.329-26,19.997-26c15.702,0,20,15.38,20,26c0,7.253-2.032,12.693-5.52,18.569	c-3.701,6.237-9.469,13.431-14.48,13.431C26.995,60.999,21.204,53.774,17.522,47.569z M44.762,46.549	C48.122,40.889,50,35.798,50,28.999c0-10.252-4.1-24-18-24c-13.865,0-17.997,13.691-17.997,24c0,6.799,1.877,11.889,5.237,17.549	c3.896,6.564,9.129,12.451,12.76,12.451C35.637,58.999,40.845,53.147,44.762,46.549z" clip-rule="evenodd"/><path fill="#f5f5f5" fill-rule="evenodd" d="M30.07,46.999	c-5.6,0-13.066-4.667-13.066-14C24.47,33.933,28.657,38.938,30.07,46.999z" clip-rule="evenodd"/><path fill="#8d6c9f" fill-rule="evenodd" d="M16.004,32.999	c0-0.6,0.527-1.067,1.124-0.992c8.007,1.001,12.456,6.427,13.926,14.82c0.108,0.612-0.364,1.172-0.984,1.172	C23.997,47.999,16.004,42.95,16.004,32.999z M18.052,34.185l0.031,0.396c0.679,6.627,5.583,10.344,10,11.217l0.748,0.112	l-0.031-0.151c-1.468-6.424-4.916-10.399-10.656-11.56L18.052,34.185z" clip-rule="evenodd"/><path fill="#f5f5f5" fill-rule="evenodd" d="M33.931,46.999	c5.6,0,13.066-4.667,13.066-14C39.531,33.933,35.345,38.938,33.931,46.999z" clip-rule="evenodd"/><path fill="#8d6c9f" fill-rule="evenodd" d="M32.946,46.827	c1.469-8.383,5.931-13.82,13.926-14.82c0.597-0.075,1.125,0.392,1.125,0.992c0,9.961-7.983,15-14.066,15	C33.31,47.999,32.838,47.439,32.946,46.827z M45.948,34.185l-0.091,0.015c-5.735,1.161-9.191,5.144-10.658,11.561l-0.031,0.151	l0.752-0.112c4.423-0.872,9.32-4.584,9.997-11.217L45.948,34.185z" clip-rule="evenodd"/><path fill="#8d6c9f" fill-rule="evenodd" d="M43.172,18.363	c-0.34-0.871-0.728-1.693-1.16-2.455c-0.273-0.48-0.105-1.091,0.375-1.363c0.48-0.273,1.091-0.105,1.363,0.375	c0.485,0.852,0.913,1.763,1.285,2.716c0.201,0.513-0.053,1.095-0.568,1.295C43.954,19.133,43.372,18.878,43.172,18.363z M19.532,18.931c-0.515-0.2-0.771-0.78-0.569-1.293c0.845-2.175,1.983-4.132,3.455-5.7c2.225-2.372,5.295-3.939,9.584-3.939	c4.001,0,6.949,1.368,9.144,3.499c0.396,0.385,0.405,1.019,0.021,1.415c-0.385,0.396-1.019,0.405-1.415,0.021	c-1.816-1.763-4.263-2.935-7.751-2.935c-3.733,0-6.275,1.333-8.127,3.308c-1.256,1.339-2.273,3.061-3.049,5.055	C20.625,18.877,20.045,19.133,19.532,18.931z" clip-rule="evenodd"/></svg>